<svg xmlns="http://www.w3.org/2000/svg" viewBox="0 0 274.381 274.382"><path d="M35.217 0h203.947c19.37 0 35.217 15.847 35.217 35.217v203.947c0 19.37-15.84 35.218-35.21 35.218H35.22C15.845 274.382 0 258.535 0 239.165V35.217C0 15.847 15.848 0 35.217 0zm164.658 30.485c-6.795 0-12.353 5.558-12.353 12.353v29.567c0 6.795 5.558 12.353 12.353 12.353h31.013c6.794 0 12.352-5.558 12.352-12.353V42.838c0-6.795-5.558-12.353-12.352-12.353h-31.013zm43.494 85.55h-24.16c2.283 7.46 3.52 15.36 3.52 23.54 0 45.64-38.188 82.637-85.29 82.637-47.1 0-85.283-36.997-85.283-82.636 0-8.18 1.233-16.08 3.52-23.542h-25.19v115.904c0 6 4.907 10.907 10.906 10.907H232.46c6 0 10.908-4.908 10.908-10.907V116.034zM137.45 83.2c-30.432 0-55.104 23.906-55.104 53.394 0 29.49 24.672 53.395 55.105 53.395 30.44 0 55.11-23.91 55.11-53.4S167.89 83.2 137.45 83.2z" fill-rule="evenodd" clip-rule="evenodd" fill="#FFF"/></svg>