<svg xmlns="http://www.w3.org/2000/svg" viewBox="0 0 208.218 290.383"><g fill="#FFF"><path d="M75.943 0H54.8L41.944 53.84h-1.32L27.127 0H6.174v.007l24.75 81.313v53.382h20.804v-55.89L75.943 0m6.333 129.72c4.828 4.974 11.272 7.47 19.312 7.492h.176c8.353-.02 14.913-2.444 19.69-7.257 4.77-4.835 7.163-11.5 7.167-20.002V58.595c0-7.568-2.43-13.758-7.3-18.558-4.882-4.813-11.14-7.21-18.795-7.21-8.4 0-15.09 2.27-20.05 6.84C77.49 44.23 75 50.36 75 58.05l.007 51.516c0 8.442 2.43 15.162 7.272 20.153zm11.742-72.412c0-2.174.708-3.928 2.115-5.27 1.41-1.328 3.235-1.99 5.488-1.99 2.44 0 4.42.66 5.92 1.99 1.5 1.34 2.26 3.096 2.26 5.27v54.116c0 2.674-.73 4.756-2.21 6.28-1.47 1.528-3.45 2.29-5.97 2.29-2.44 0-4.31-.743-5.63-2.23-1.31-1.5-1.963-3.61-1.963-6.34V57.31zm84.556-21.972v75.43c-1.745 2.157-3.64 3.944-5.722 5.34-2.07 1.402-3.782 2.09-5.144 2.09-1.733 0-2.985-.524-3.753-1.58-.77-1.054-1.155-2.752-1.155-5.11v-76.17h-18.483v83.09c.004 5.9 1.086 10.322 3.245 13.277 2.163 2.952 5.385 4.423 9.655 4.423 3.456 0 7.035-1.054 10.732-3.158 3.67-2.11 7.21-5.195 10.62-9.23v10.964h18.463V35.336H178.57zm-5.547 171.92c-2.013 0-3.457.614-4.33 1.846-.876 1.228-1.323 3.27-1.323 6.115v6.882h11.163v-6.89c0-2.847-.44-4.888-1.314-6.117-.874-1.23-2.277-1.846-4.196-1.846zm-46.45-.244c-.903 0-1.79.224-2.664.665-.886.45-1.753 1.14-2.62 2.072v42.34c1.038 1.1 2.03 1.9 3.002 2.38.964.49 1.977.73 3.046.73 1.55 0 2.69-.48 3.42-1.43.73-.956 1.096-2.517 1.096-4.687v-35.07c0-2.298-.45-4.038-1.354-5.227-.903-1.187-2.204-1.78-3.916-1.78z"/><path d="M206.817 181.302c0-16.407-13.47-29.72-30.07-29.72-22.513-.94-45.52-1.384-68.972-1.384-1.228 0-2.45 0-3.674.002-1.22-.002-2.45-.002-3.67-.002-23.44 0-46.46.446-68.97 1.384-16.6 0-30.062 13.313-30.062 29.72-1 12.998-1.427 25.99-1.39 38.983-.036 13 .393 25.99 1.39 38.996C1.398 275.69 14.86 289 31.46 289c22.613.95 45.74 1.388 69.296 1.388 1.118 0 2.23 0 3.35-.002 1.116.003 2.228.003 3.345.003 23.567 0 46.68-.44 69.3-1.387 16.6 0 30.07-13.315 30.07-29.72 1-13.004 1.43-25.994 1.4-38.995.03-12.993-.4-25.986-1.393-38.983zM45.62 265.022H31.394v-78.74H16.68v-13.367h43.66v13.368H45.62v78.738zm50.604 0H83.59v-7.506c-2.325 2.773-4.75 4.874-7.267 6.318-2.52 1.445-4.965 2.165-7.332 2.165-2.91 0-5.12-1.01-6.59-3.03-1.482-2.03-2.225-5.06-2.225-9.11v-56.79H72.8v52.075c0 1.614.266 2.784.8 3.5.527.723 1.385 1.08 2.57 1.08.925 0 2.098-.47 3.52-1.425 1.42-.957 2.72-2.173 3.904-3.656V197.07h12.633v67.942zm48.625-14.08c0 4.832-.99 8.526-2.97 11.094-1.99 2.562-4.84 3.847-8.59 3.847-2.474 0-4.674-.5-6.61-1.5-1.93-.985-3.725-2.518-5.395-4.584v5.22h-12.74v-92.11h12.744v29.65c1.71-2.08 3.52-3.65 5.43-4.73 1.92-1.08 3.854-1.625 5.814-1.625 3.984 0 7.043 1.456 9.15 4.35 2.11 2.91 3.16 7.134 3.16 12.685v37.69zm46.68-18.304h-24.16v12.82c0 3.568.42 6.054 1.26 7.433.83 1.39 2.25 2.08 4.26 2.08 2.09 0 3.562-.59 4.39-1.75.833-1.172 1.248-3.75 1.248-7.752v-4.72h13v5.106c0 6.958-1.575 12.204-4.747 15.73-3.164 3.528-7.89 5.284-14.18 5.284-5.65 0-10.1-1.87-13.36-5.6-3.245-3.746-4.867-8.88-4.867-15.417v-30.5c0-5.9 1.778-10.71 5.35-14.42 3.573-3.71 8.185-5.564 13.834-5.564 5.78 0 10.22 1.717 13.33 5.16 3.092 3.434 4.64 8.373 4.64 14.823v17.293z"/></g></svg>