<svg xmlns="http://www.w3.org/2000/svg" viewBox="0 0 265.118 215.456"><path d="M265.118 25.505c-9.754 4.326-20.237 7.25-31.24 8.565 11.23-6.732 19.854-17.39 23.915-30.093-10.51 6.234-22.15 10.76-34.54 13.2C213.333 6.604 199.195 0 183.553 0c-30.04 0-54.394 24.353-54.394 54.39 0 4.264.48 8.416 1.404 12.397C85.36 64.517 45.28 42.864 18.454 9.955 13.773 17.988 11.09 27.332 11.09 37.3c0 18.87 9.603 35.52 24.2 45.273-8.917-.283-17.303-2.73-24.636-6.803-.005.227-.005.454-.005.684 0 26.354 18.75 48.335 43.63 53.335-4.565 1.24-9.37 1.903-14.33 1.903-3.506 0-6.91-.342-10.235-.976 6.922 21.61 27.01 37.334 50.81 37.77-18.614 14.59-42.067 23.287-67.55 23.287-4.39 0-8.72-.26-12.976-.76 24.07 15.432 52.662 24.437 83.38 24.437 100.045 0 154.756-82.88 154.756-154.757 0-2.358-.053-4.704-.158-7.037 10.623-7.67 19.844-17.25 27.136-28.156z" fill="#FFF"/></svg>