<svg xmlns="http://www.w3.org/2000/svg" viewBox="0 0 173.411 216.903"><path d="M.417 0h98.5c32.41 0 60.002 15.877 59.973 47.985-.026 26.81-9.732 37.237-29.675 49.03 1.705 1.404 13.133 4.813 16.97 6.704 6.145 3.027 9.76 6.09 13.803 10.2 11.315 11.502 13.424 22.02 13.424 40.064 0 41.868-40.496 62.917-79.494 62.917H0L.417 0zm53.525 56.985l-.007 28.167c25.37 0 49.21 3.342 49.21-24.167 0-25.468-26.97-21.272-49.228-21.272l.025 17.272zm-.015 119.99c27.8 0 62.144 4.58 62.748-26.982.63-32.923-35.28-26.98-62.732-26.98l-.016 53.962z" fill-rule="evenodd" clip-rule="evenodd" fill="#FFF"/></svg>