<svg xmlns="http://www.w3.org/2000/svg" viewBox="0 0 90.64 68.753"><path fill="#9DBF4B" d="M17.434 13.172h13.113V57.03H17.434z"/><path fill="#ECE036" d="M48.296 57.03H35.184l-17.75-43.858h13.113"/><path d="M.114 64.33V60.5H.74v3.83H.114zm5.366 0h-.77l-1.88-3.054h-.02l.012.17c.024.325.037.622.037.89v1.992h-.57V60.5h.76l1.88 3.035h.01c-.007-.04-.01-.186-.02-.438s-.02-.45-.02-.59V60.5h.573v3.83zm2.87 0h-.626v-3.294H6.597V60.5h2.88v.536H8.35v3.293zm4.416 0H10.6V60.5h2.166v.528h-1.54v1.042h1.443v.524h-1.45v1.203h1.54v.532zm1.99-1.53v1.53h-.626V60.5h1.082c.494 0 .86.092 1.098.277s.356.465.356.838c0 .477-.248.816-.744 1.02l1.082 1.694h-.712l-.917-1.53h-.62zm0-.52h.435c.3 0 .51-.054.64-.163.13-.108.2-.27.2-.482 0-.217-.07-.372-.21-.466-.142-.1-.355-.15-.64-.15h-.414v1.25zm6.53 2.05h-.768l-1.883-3.053h-.02l.012.17c.024.325.037.622.037.89v1.992h-.57V60.5h.76l1.88 3.035h.015c-.01-.04-.01-.186-.03-.438-.01-.252-.017-.45-.017-.59V60.5h.574v3.83zm3.714 0h-2.167V60.5H25v.528h-1.54v1.042h1.443v.524H23.46v1.203H25v.532zm2.687 0h-.626v-3.294h-1.12V60.5h2.88v.536h-1.13v3.293zm5.836 0l-1.11-3.2h-.02c.03.475.044.92.044 1.336v1.862h-.568v-3.83h.88l1.06 3.047h.012l1.095-3.047h.886v3.83H35.2v-1.894c0-.19.004-.438.014-.744.01-.305.02-.49.025-.555h-.02l-1.15 3.193h-.556zm6.207 0l-.382-1.064h-1.464l-.375 1.063h-.66l1.43-3.85h.68l1.43 3.84h-.668zm-.547-1.604l-.358-1.043c-.026-.07-.062-.18-.11-.33-.045-.15-.077-.26-.095-.33-.047.215-.116.45-.207.705l-.346.998h1.116zm2.88.074v1.53h-.625V60.5h1.082c.494 0 .86.092 1.098.277.237.185.355.465.355.838 0 .477-.248.816-.743 1.02l1.08 1.694h-.71l-.918-1.53h-.618zm0-.52h.436c.29 0 .5-.054.63-.163s.19-.27.19-.482c0-.217-.07-.372-.213-.466s-.354-.15-.64-.15h-.413v1.25zm6.264 2.05H47.6l-1.2-1.735-.37.3v1.434h-.626V60.5h.626v1.828c.17-.21.34-.41.51-.605l1.035-1.224h.713c-.67.78-1.148 1.34-1.438 1.67l1.477 2.15zm3.21 0H49.37V60.5h2.166v.528h-1.54v1.042h1.443v.524h-1.45v1.203h1.54v.532zm2.685 0h-.626v-3.294H52.47V60.5h2.88v.536h-1.13v3.293zm2.25 0V60.5h.627v3.83h-.63zm5.365 0h-.767l-1.884-3.053h-.02l.012.17c.024.325.037.622.037.89v1.992h-.568V60.5h.76l1.878 3.035h.015c-.004-.04-.01-.186-.02-.438-.012-.252-.017-.45-.017-.59V60.5h.573v3.83zm3.115-2.078h1.41v1.922c-.23.075-.453.128-.665.16-.212.03-.44.047-.688.047-.58 0-1.03-.17-1.35-.51-.315-.34-.47-.822-.47-1.45 0-.614.174-1.1.53-1.445.352-.35.84-.522 1.463-.522.4 0 .78.078 1.137.23l-.22.52c-.31-.142-.62-.213-.93-.213-.41 0-.73.13-.97.385s-.357.606-.357 1.05c0 .47.107.825.32 1.068s.522.366.924.366c.202 0 .42-.026.65-.077v-.987h-.795v-.536z" fill="#434243"/><path fill="#9DBF4B" d="M35.406 57.03H48.52l17.748-43.858H53.155"/><path fill="#ECE036" d="M53.344 13.172H66.3V57.03H53.345z"/><path opacity=".4" fill="#A2C64D" d="M30.547 13.172H17.434l13.113 32.4m35.72-32.4H53.345v31.934"/><path opacity=".4" fill="#E6E43C" d="M35.406 57.03h12.89L41.85 41.104"/><circle cx="80.347" cy="10.293" r="10.293" fill="#70348F"/><path d="M72.726 13.166V7.894h2.314c.27 0 .52.045.746.136.226.09.412.21.56.362.145.15.27.324.37.52.103.2.164.407.187.622.01.108.015.216.015.324s-.005.215-.015.323c-.02.22-.084.43-.185.62-.102.2-.226.37-.372.52s-.333.27-.56.36-.473.14-.744.14h-.967v1.355h-1.35zm1.35-2.56h.963c.1 0 .19-.027.27-.082s.14-.126.18-.215c.043-.09.075-.19.095-.3.012-.057.02-.115.02-.174 0-.05-.003-.1-.013-.15-.02-.108-.05-.207-.093-.295s-.104-.16-.186-.217c-.08-.056-.178-.084-.286-.084-.096-.003-.197-.005-.306-.005h-.36l-.3.003v1.51zm3.867 2.56V7.894h2.314c.25 0 .482.037.696.11.213.074.394.172.54.296.147.124.273.27.38.436.103.17.176.345.22.526.04.16.06.324.06.493v.074c-.005.19-.038.38-.098.56-.06.18-.15.35-.266.5-.12.16-.26.294-.42.405l1.03 1.67v.193h-1.51l-.91-1.544h-.7v1.545h-1.35zm1.35-2.75h.962c.1 0 .19-.024.27-.072s.142-.11.185-.188.074-.162.094-.255c.013-.04.02-.09.02-.14.002-.04-.002-.09-.012-.13-.02-.092-.05-.18-.092-.256-.042-.08-.104-.142-.185-.19-.08-.05-.174-.075-.28-.075-.093 0-.193-.004-.3-.004h-.663v1.32zm3.595.12c0-.438.076-.835.23-1.19s.357-.642.61-.86c.253-.218.54-.386.865-.505s.654-.17.992-.17c.337 0 .67.06.993.18.325.12.614.288.868.506.254.218.458.505.612.86s.232.75.232 1.19c0 .44-.078.84-.232 1.195-.154.357-.358.645-.612.864-.254.22-.543.39-.868.508-.324.12-.656.18-.993.18-.338 0-.668-.06-.992-.18s-.612-.286-.865-.506c-.253-.22-.456-.508-.61-.864-.154-.355-.23-.754-.23-1.195zm1.378 0c0 .23.038.438.114.624s.177.337.3.452c.124.115.266.203.424.264.158.062.32.092.486.092.165 0 .327-.03.485-.092.158-.06.3-.15.424-.264.12-.115.22-.266.3-.452s.11-.394.11-.624c0-.228-.04-.434-.12-.62-.077-.184-.177-.333-.3-.447-.125-.12-.267-.21-.425-.27s-.32-.09-.485-.09c-.165 0-.327.03-.485.09s-.3.15-.424.26c-.12.114-.222.263-.3.448-.074.185-.112.39-.112.62z" fill="#FFF"/><path fill="#ECE036" d="M.082 23.86h13.113v33.166H.082z"/><path fill="#70348F" d="M.082 13.17h13.113v10.678H.082z"/><path opacity=".3" fill="#8A559D" d="M.082 23.836h13.113v4.32H.082z"/><path d="M1.583 68.714H0v-2.84h1.583v.294H.33v.915h1.18v.29H.33v1.046h1.253v.29zm3.293-1.448c0 .47-.127.828-.382 1.075-.254.25-.62.38-1.098.38H2.61v-2.84h.87c.44 0 .785.126 1.03.37s.366.588.366 1.026zm-.35.012c0-.37-.092-.65-.278-.836-.186-.188-.462-.282-.828-.282h-.48v2.27h.402c.394 0 .69-.1.888-.292.198-.194.297-.48.297-.86zm3.524-1.404v1.837c0 .33-.097.58-.292.77-.196.19-.464.28-.806.28s-.606-.093-.793-.28c-.19-.186-.29-.44-.29-.77v-1.83h.33v1.855c0 .236.063.418.193.545.13.127.32.19.57.19.24 0 .425-.064.555-.19.13-.13.194-.312.194-.55v-1.85h.33zm2.366.256c-.312 0-.558.103-.74.31-.18.21-.27.493-.27.854 0 .372.087.66.26.86.175.204.423.306.746.306.198 0 .424-.036.678-.107v.29c-.197.073-.44.11-.728.11-.418 0-.74-.127-.968-.38-.227-.255-.34-.615-.34-1.083 0-.293.054-.55.163-.77.11-.22.268-.39.474-.508s.45-.18.73-.18c.3 0 .56.055.78.164l-.14.283c-.21-.1-.43-.15-.64-.15zm3.476 2.584l-.354-.902H12.4l-.35.902h-.334l1.123-2.85h.27l1.115 2.85h-.34zm-.456-1.2l-.33-.88c-.043-.112-.087-.25-.132-.41-.028.124-.07.26-.122.41l-.334.88h.918zm2.46 1.2h-.33v-2.546h-.9v-.293h2.13v.293h-.9v2.546zm1.724 0v-2.84h.33v2.84h-.33zm3.97-1.424c0 .455-.114.812-.344 1.072-.23.26-.55.39-.958.39-.418 0-.74-.127-.968-.383-.227-.26-.34-.62-.34-1.09 0-.46.113-.82.34-1.078s.553-.38.972-.38c.408 0 .726.13.956.387.23.26.343.617.343 1.072zm-2.26 0c0 .385.08.676.245.875.164.2.402.3.714.3.31 0 .55-.1.71-.3.16-.197.24-.488.24-.875 0-.382-.08-.67-.24-.87-.16-.197-.4-.295-.71-.295-.32 0-.56.1-.72.298-.168.2-.25.488-.25.867zm5.51 1.424h-.377L22.91 66.33h-.015c.02.28.03.537.03.77v1.614h-.304v-2.84H23l1.548 2.374h.016c-.003-.034-.01-.146-.02-.336s-.01-.326-.01-.407v-1.63h.31v2.84zm4.394 0l-.354-.902h-1.138l-.35.902h-.334l1.123-2.85h.28l1.12 2.85h-.34zm-.457-1.2l-.33-.88c-.043-.112-.087-.25-.132-.41-.028.124-.07.26-.122.41l-.334.88h.91zm3.805 1.2h-.377l-1.552-2.383h-.016c.02.28.03.54.03.77v1.62h-.304v-2.84h.373l1.547 2.377h.016c-.01-.034-.01-.146-.02-.336-.01-.19-.01-.326-.01-.407v-1.63h.31v2.84zm3.444-1.448c0 .47-.127.828-.38 1.075-.256.25-.622.38-1.1.38h-.787v-2.84h.87c.44 0 .78.126 1.03.37.24.246.36.588.36 1.026zm-.35.012c0-.37-.093-.65-.278-.836-.186-.188-.462-.282-.828-.282h-.48v2.27h.402c.393 0 .69-.1.887-.292.19-.194.29-.48.29-.86zm4.028-1.148c-.312 0-.56.103-.74.31-.18.21-.27.493-.27.854 0 .372.087.66.26.86.175.204.424.306.746.306.197 0 .424-.036.678-.107v.29c-.197.073-.44.11-.73.11-.417 0-.74-.127-.967-.38-.22-.255-.34-.615-.34-1.083 0-.293.06-.55.17-.77.11-.22.27-.39.477-.508.206-.12.45-.18.73-.18.297 0 .557.055.78.164l-.14.283c-.215-.1-.43-.15-.644-.15zm4.156 1.16c0 .455-.115.812-.346 1.072-.23.26-.55.39-.958.39-.418 0-.74-.127-.968-.383-.228-.26-.34-.62-.34-1.09 0-.46.112-.82.34-1.078.23-.254.552-.38.972-.38.408 0 .727.13.955.387.23.26.344.617.344 1.072zm-2.263 0c0 .385.08.676.245.875s.4.3.714.3c.314 0 .552-.1.713-.3.16-.197.24-.488.24-.875 0-.382-.08-.67-.24-.87-.16-.197-.4-.295-.71-.295-.32 0-.56.1-.72.298s-.25.488-.25.867zm5.51 1.424h-.376l-1.55-2.383h-.01c.02.28.03.54.03.77v1.62h-.3v-2.84h.374l1.547 2.377h.017l-.016-.336c-.01-.19-.013-.326-.01-.407v-1.63h.31v2.84zm2.78-.756c0 .25-.09.445-.27.585s-.43.21-.74.21c-.334 0-.594-.043-.774-.13v-.32c.116.05.243.09.38.118.138.03.273.05.408.05.23 0 .39-.04.5-.123.11-.083.17-.2.17-.35 0-.097-.02-.18-.06-.24-.04-.063-.1-.12-.193-.175-.093-.053-.233-.113-.423-.18-.264-.095-.452-.207-.565-.336-.11-.13-.17-.3-.17-.507 0-.22.083-.39.247-.52.164-.13.382-.195.652-.195.28 0 .54.05.78.155l-.107.287c-.234-.097-.462-.146-.684-.146-.177 0-.313.036-.41.11s-.148.18-.148.313c0 .1.018.18.054.24s.1.12.185.175c.09.053.22.11.4.174.297.108.5.22.613.344.114.12.17.28.17.474zm3.123-2.084v1.837c0 .33-.098.58-.293.77-.195.19-.464.28-.806.28s-.6-.093-.79-.28c-.18-.186-.28-.44-.28-.77v-1.83h.33v1.855c0 .236.07.418.2.545.13.127.32.19.57.19.24 0 .426-.064.555-.19.13-.13.194-.312.194-.55v-1.85h.33zm1.15 2.84v-2.84h.33v2.542h1.253v.3H54.16zm3.337 0h-.33v-2.546h-.9v-.293h2.13v.293h-.9v2.546zm1.723 0v-2.84h.33v2.84h-.33zm3.725 0h-.377l-1.552-2.383H61c.02.28.03.54.03.77v1.62h-.304v-2.84h.374l1.547 2.377h.016l-.017-.336c-.01-.19-.013-.326-.01-.407v-1.63h.31v2.84zm2.427-1.49h.966v1.38c-.15.05-.303.087-.46.11-.154.025-.334.038-.538.038-.43 0-.765-.128-1.005-.384-.24-.256-.358-.614-.358-1.075 0-.295.06-.554.178-.775.118-.222.29-.392.512-.51s.483-.175.782-.175c.3 0 .58.056.84.167l-.13.29c-.258-.107-.504-.162-.74-.162-.347 0-.616.103-.81.31-.195.205-.29.49-.29.855 0 .383.09.674.28.872.185.198.46.298.822.298.197 0 .39-.023.577-.068v-.874h-.636v-.29z" fill="#6D6E70"/></svg>