<?xml version="1.0" encoding="iso-8859-1"?>
<!-- Generator: Adobe Illustrator 19.1.0, SVG Export Plug-In . SVG Version: 6.00 Build 0)  -->
<svg version="1.1" id="Layer_1" xmlns="http://www.w3.org/2000/svg" xmlns:xlink="http://www.w3.org/1999/xlink" x="0px" y="0px"
	 viewBox="0 0 173.411 216.903" style="enable-background:new 0 0 173.411 216.903;" xml:space="preserve">
<path style="fill-rule:evenodd;clip-rule:evenodd;fill:#FFFFFF;" d="M0.417,0h98.5c32.411,0,60.002,15.877,59.973,47.985
	c-0.026,26.809-9.732,37.237-29.675,49.029c1.705,1.405,13.133,4.814,16.97,6.705c6.145,3.029,9.76,6.09,13.803,10.2
	c11.315,11.504,13.424,22.021,13.424,40.066c0,41.868-40.496,62.917-79.494,62.917H0L0.417,0L0.417,0z M53.942,56.985l-0.007,28.167
	c25.371,0,49.211,3.342,49.211-24.167c0-25.468-26.97-21.272-49.229-21.272L53.942,56.985L53.942,56.985z M53.927,176.975
	c27.799,0,62.144,4.58,62.748-26.982c0.63-32.923-35.281-26.981-62.732-26.981L53.927,176.975L53.927,176.975z"/>
</svg>
