<?xml version="1.0" encoding="iso-8859-1"?>
<!-- Generator: Adobe Illustrator 19.1.0, SVG Export Plug-In . SVG Version: 6.00 Build 0)  -->
<svg version="1.1" id="Layer_1" xmlns="http://www.w3.org/2000/svg" xmlns:xlink="http://www.w3.org/1999/xlink" x="0px" y="0px"
	 viewBox="0 0 265.118 215.456" style="enable-background:new 0 0 265.118 215.456;" xml:space="preserve">
<path style="fill:#FFFFFF;" d="M265.118,25.505c-9.754,4.326-20.237,7.25-31.24,8.565c11.229-6.732,19.854-17.391,23.915-30.093
	c-10.51,6.234-22.151,10.76-34.541,13.199C213.332,6.605,199.196,0,183.552,0c-30.038,0-54.392,24.353-54.392,54.391
	c0,4.263,0.481,8.415,1.408,12.396C85.363,64.518,45.284,42.864,18.458,9.955c-4.683,8.033-7.365,17.377-7.365,27.345
	c0,18.871,9.602,35.519,24.198,45.273c-8.917-0.283-17.303-2.73-24.636-6.803c-0.005,0.227-0.005,0.454-0.005,0.684
	c0,26.354,18.75,48.335,43.632,53.335c-4.564,1.243-9.369,1.908-14.33,1.908c-3.505,0-6.912-0.342-10.234-0.976
	c6.922,21.608,27.009,37.334,50.811,37.771c-18.615,14.589-42.068,23.286-67.552,23.286c-4.39,0-8.719-0.259-12.975-0.761
	c24.071,15.433,52.662,24.438,83.379,24.438c100.046,0,154.757-82.881,154.757-154.758c0-2.358-0.053-4.704-0.158-7.037
	C248.605,45.992,257.826,36.412,265.118,25.505L265.118,25.505z"/>
</svg>
