<?xml version="1.0" encoding="iso-8859-1"?>
<!-- Generator: Adobe Illustrator 19.1.0, SVG Export Plug-In . SVG Version: 6.00 Build 0)  -->
<svg version="1.1" id="Layer_1" xmlns="http://www.w3.org/2000/svg" xmlns:xlink="http://www.w3.org/1999/xlink" x="0px" y="0px"
	 viewBox="0 0 274.381 274.382" style="enable-background:new 0 0 274.381 274.382;" xml:space="preserve">
<path style="fill-rule:evenodd;clip-rule:evenodd;fill:#FFFFFF;" d="M35.217,0h203.947c19.369,0,35.217,15.847,35.217,35.217
	v203.947c0,19.37-15.848,35.218-35.217,35.218H35.217C15.848,274.382,0,258.535,0,239.165V35.217C0,15.847,15.848,0,35.217,0
	L35.217,0z M199.875,30.485L199.875,30.485c-6.795,0-12.353,5.558-12.353,12.353v29.567c0,6.795,5.558,12.353,12.353,12.353h31.013
	c6.794,0,12.352-5.558,12.352-12.353V42.838c0-6.795-5.558-12.353-12.352-12.353H199.875L199.875,30.485z M243.369,116.034
	L243.369,116.034h-24.151c2.285,7.462,3.519,15.362,3.519,23.542c0,45.639-38.185,82.636-85.286,82.636
	c-47.101,0-85.284-36.997-85.284-82.636c0-8.18,1.233-16.08,3.518-23.542H30.487v115.904c0,5.999,4.908,10.907,10.907,10.907
	h191.068c5.999,0,10.907-4.908,10.907-10.907V116.034L243.369,116.034z M137.451,83.202L137.451,83.202
	c-30.433,0-55.105,23.906-55.105,53.394c0,29.49,24.672,53.395,55.105,53.395c30.435,0,55.106-23.905,55.106-53.395
	C192.557,107.107,167.886,83.202,137.451,83.202L137.451,83.202z"/>
</svg>
