<?xml version="1.0" encoding="iso-8859-1"?>
<!-- Generator: Adobe Illustrator 19.1.0, SVG Export Plug-In . SVG Version: 6.00 Build 0)  -->
<svg version="1.1" id="Layer_1" xmlns="http://www.w3.org/2000/svg" xmlns:xlink="http://www.w3.org/1999/xlink" x="0px" y="0px"
	 viewBox="0 0 208.218 290.383" style="enable-background:new 0 0 208.218 290.383;" xml:space="preserve">
<g>
	<g>
		<polygon style="fill:#FFFFFF;" points="75.943,0 54.801,0 41.943,53.839 40.622,53.839 27.128,0 6.174,0 6.174,0.007 
			30.923,81.32 30.923,134.702 51.728,134.702 51.728,78.811 75.943,0 		"/>
		<path style="fill:#FFFFFF;" d="M82.276,129.719c4.828,4.975,11.272,7.472,19.312,7.493h0.176
			c8.353-0.021,14.913-2.444,19.691-7.257c4.77-4.835,7.162-11.5,7.166-20.002V58.595c-0.004-7.568-2.437-13.758-7.308-18.558
			c-4.884-4.813-11.142-7.211-18.797-7.211c-8.4,0-15.088,2.271-20.05,6.84c-4.978,4.563-7.469,10.693-7.469,18.384l0.007,51.516
			C75.005,118.008,77.433,124.728,82.276,129.719L82.276,129.719z M94.018,57.308L94.018,57.308c0-2.174,0.708-3.928,2.115-5.271
			c1.411-1.327,3.235-1.989,5.488-1.989c2.44,0,4.418,0.661,5.919,1.989c1.501,1.342,2.261,3.097,2.261,5.271v54.116
			c0,2.674-0.736,4.756-2.212,6.281c-1.469,1.527-3.455,2.29-5.968,2.29c-2.44,0-4.313-0.744-5.637-2.23
			c-1.314-1.501-1.966-3.61-1.966-6.34V57.308L94.018,57.308z"/>
		<path style="fill:#FFFFFF;" d="M178.574,35.336v75.429c-1.745,2.158-3.64,3.945-5.722,5.342c-2.07,1.401-3.782,2.09-5.144,2.09
			c-1.733,0-2.985-0.525-3.753-1.582c-0.769-1.053-1.155-2.751-1.155-5.11V35.336h-18.483v83.091
			c0.004,5.899,1.086,10.321,3.245,13.276c2.163,2.952,5.385,4.423,9.655,4.423c3.456,0,7.035-1.054,10.732-3.158
			c3.673-2.111,7.214-5.195,10.626-9.23v10.964h18.467V35.336H178.574L178.574,35.336z"/>
	</g>
	<g>
		<path style="fill:#FFFFFF;" d="M173.027,207.256c-2.013,0-3.457,0.614-4.331,1.846c-0.875,1.228-1.322,3.27-1.322,6.115v6.882
			h11.163v-6.882c0-2.845-0.439-4.886-1.314-6.115C176.349,207.87,174.946,207.256,173.027,207.256z"/>
		<path style="fill:#FFFFFF;" d="M126.577,207.012c-0.903,0-1.789,0.224-2.664,0.665c-0.886,0.451-1.753,1.139-2.619,2.072v42.34
			c1.037,1.104,2.029,1.901,3.001,2.385c0.964,0.496,1.977,0.734,3.046,0.734c1.549,0,2.684-0.478,3.412-1.431
			c0.729-0.954,1.094-2.515,1.094-4.685v-35.073c0-2.296-0.451-4.036-1.354-5.225C129.59,207.607,128.289,207.012,126.577,207.012z"
			/>
		<path style="fill:#FFFFFF;" d="M206.817,181.302c0-16.407-13.469-29.72-30.07-29.72c-22.513-0.939-45.519-1.384-68.972-1.384
			c-1.228,0-2.449,0-3.674,0.002c-1.223-0.002-2.451-0.002-3.673-0.002c-23.445,0-46.46,0.446-68.974,1.384
			c-16.599,0-30.065,13.313-30.065,29.72c-0.997,12.997-1.426,25.99-1.388,38.983c-0.038,13.001,0.391,25.991,1.388,38.996
			c0,16.404,13.466,29.72,30.065,29.72c22.614,0.946,45.74,1.382,69.297,1.382c1.116,0,2.23,0,3.349-0.002
			c1.115,0.002,2.227,0.002,3.344,0.002c23.563,0,46.682-0.437,69.301-1.382c16.6,0,30.07-13.316,30.07-29.72
			c0.996-13.005,1.427-25.995,1.399-38.996C208.245,207.292,207.814,194.299,206.817,181.302z M45.62,265.021H31.394v-78.738H16.679
			v-13.368h43.663v13.368H45.62V265.021z M96.224,265.021H83.591v-7.505c-2.326,2.773-4.75,4.874-7.268,6.318
			c-2.519,1.445-4.965,2.165-7.332,2.165c-2.918,0-5.124-1.01-6.598-3.029c-1.484-2.025-2.227-5.057-2.227-9.104v-56.788h12.631
			v52.077c0,1.614,0.266,2.784,0.8,3.498c0.527,0.724,1.385,1.08,2.571,1.08c0.925,0,2.098-0.47,3.522-1.424
			c1.419-0.957,2.717-2.173,3.902-3.656v-51.575h12.633V265.021z M144.849,250.942c0,4.832-0.984,8.526-2.965,11.094
			c-1.985,2.562-4.835,3.847-8.585,3.847c-2.473,0-4.673-0.5-6.608-1.501c-1.932-0.984-3.726-2.517-5.396-4.583v5.222h-12.745
			v-92.105h12.745v29.651c1.708-2.076,3.518-3.648,5.429-4.728c1.919-1.08,3.855-1.623,5.815-1.623c3.989,0,7.048,1.456,9.15,4.351
			c2.111,2.908,3.16,7.133,3.16,12.684V250.942z M191.535,232.638h-24.161v12.821c0,3.567,0.423,6.053,1.261,7.432
			c0.834,1.384,2.253,2.072,4.258,2.072c2.095,0,3.567-0.59,4.396-1.751c0.833-1.173,1.248-3.75,1.248-7.753v-4.719h12.998v5.105
			c0,6.958-1.574,12.204-4.746,15.732c-3.164,3.526-7.889,5.282-14.181,5.282c-5.652,0-10.102-1.87-13.359-5.598
			c-3.246-3.746-4.868-8.882-4.868-15.417v-30.5c0-5.899,1.777-10.708,5.348-14.421c3.574-3.708,8.186-5.563,13.835-5.563
			c5.779,0,10.22,1.718,13.331,5.159c3.091,3.436,4.64,8.375,4.64,14.825V232.638z"/>
	</g>
</g>
</svg>
